<?xml version="1.0" standalone="no"?>
<!DOCTYPE svg PUBLIC "-//W3C//DTD SVG 20010904//EN"
 "http://www.w3.org/TR/2001/REC-SVG-20010904/DTD/svg10.dtd">
<svg version="1.0" xmlns="http://www.w3.org/2000/svg"
 width="270.000000pt" height="60.000000pt" viewBox="0 0 270.000000 60.000000"
 preserveAspectRatio="xMidYMid meet">

<g transform="translate(0.000000,60.000000) scale(0.100000,-0.100000)"
fill="#000000" stroke="none">
<path d="M83 528 c-4 -7 -6 -82 -4 -166 l3 -152 -32 -30 -31 -29 17 -31 c22
-36 27 -36 69 -10 56 35 65 68 65 247 0 110 -4 163 -12 171 -16 16 -65 15 -75
0z m54 -19 c14 -14 6 -39 -12 -39 -18 0 -28 17 -21 35 6 18 18 19 33 4z m3
-194 c0 -122 -9 -155 -47 -180 -20 -14 -24 -14 -29 -1 -3 8 4 24 15 35 18 18
21 34 22 126 1 58 3 110 4 115 1 6 3 12 4 15 0 3 8 5 16 5 12 0 15 -19 15
-115z"/>
<path d="M2029 483 l-11 -33 -67 6 c-43 4 -81 2 -104 -5 l-37 -13 0 -129 0
-129 45 0 45 0 0 96 0 96 38 -6 c20 -4 45 -7 55 -8 12 -2 17 -11 17 -34 0
-117 72 -179 163 -140 28 11 35 19 30 32 -5 13 2 11 29 -9 19 -15 49 -30 65
-33 35 -7 99 10 126 34 15 14 16 18 3 38 -14 20 -13 24 4 39 20 18 20 17 20
-43 l0 -62 45 0 45 0 0 96 0 96 33 -4 c17 -3 39 -8 48 -12 12 -5 18 3 28 35 7
22 11 42 9 43 -43 27 -123 34 -176 15 -26 -9 -31 -17 -34 -47 l-3 -37 -14 28
c-20 38 -70 67 -117 67 -41 0 -101 -30 -110 -55 -10 -26 -24 -16 -24 18 0 30
-2 32 -32 31 -29 -1 -34 2 -38 29 -4 26 -9 30 -38 31 -28 1 -34 -3 -43 -31z
m51 -23 c0 -28 3 -30 35 -30 28 0 35 -4 35 -20 0 -16 -7 -20 -35 -20 l-35 0 0
-64 c0 -77 16 -101 61 -91 22 5 29 3 29 -8 0 -8 -7 -18 -16 -21 -32 -12 -56
-5 -85 23 -26 27 -29 36 -29 94 0 57 -2 65 -21 70 -26 7 -20 31 8 35 14 2 23
13 27 33 7 38 26 38 26 -1z m-103 -38 c23 -14 -2 -27 -52 -27 l-50 0 -3 -92
c-2 -74 -6 -93 -17 -93 -12 0 -15 19 -15 104 0 74 4 106 13 109 19 8 111 7
124 -1z m387 -3 c29 -13 60 -67 55 -94 -4 -18 -14 -20 -92 -23 -48 -1 -87 -6
-87 -11 0 -4 12 -18 26 -32 24 -22 72 -30 113 -18 7 2 15 -1 18 -8 7 -20 -65
-37 -108 -24 -66 20 -100 82 -79 145 21 66 89 94 154 65z m253 3 c23 -14 -2
-27 -52 -27 l-50 0 -3 -92 c-2 -74 -6 -93 -17 -93 -12 0 -15 19 -15 104 0 74
4 106 13 109 19 8 111 7 124 -1z m-441 -99 c-1 -34 -6 -44 -24 -53 -34 -15
-42 -5 -42 48 0 47 0 47 33 47 33 0 34 -1 33 -42z m161 -59 c-3 -3 -12 -4 -19
-1 -8 3 -5 6 6 6 11 1 17 -2 13 -5z"/>
<path d="M2261 374 c-12 -15 -21 -31 -21 -35 0 -5 32 -9 70 -9 77 0 88 12 50
50 -29 29 -74 26 -99 -6z m62 -11 c-7 -2 -19 -2 -25 0 -7 3 -2 5 12 5 14 0 19
-2 13 -5z"/>
<path d="M1395 495 c-3 -8 -7 -22 -10 -31 -3 -10 -12 -14 -25 -11 -10 3 -21 0
-22 -5 -3 -7 -11 -7 -25 1 -40 21 -108 14 -142 -15 -17 -14 -31 -33 -31 -42 0
-12 -9 -8 -32 15 -18 17 -43 36 -55 42 -28 14 -111 14 -152 0 l-31 -11 0 -169
0 -169 45 0 c45 0 45 0 45 35 0 31 3 35 28 35 31 0 106 32 117 50 5 8 13 6 29
-8 46 -44 147 -48 197 -9 41 32 47 90 13 128 -13 14 -13 18 0 28 25 21 36 3
36 -59 0 -48 5 -64 26 -89 31 -38 78 -48 127 -28 31 14 40 14 79 0 40 -14 87
-13 156 4 21 5 22 10 22 105 l0 100 -34 34 c-30 30 -40 34 -87 34 -36 0 -65
-7 -87 -20 -31 -19 -32 -21 -17 -44 15 -22 14 -26 -10 -61 -14 -21 -25 -44
-25 -51 0 -16 -39 -29 -52 -16 -5 5 -8 29 -6 53 3 42 4 44 36 44 30 0 32 2 32
37 0 52 -1 53 -35 53 -25 0 -30 4 -33 28 -3 24 -8 27 -38 27 -22 0 -36 -5 -39
-15z m45 -34 c0 -27 3 -30 38 -33 25 -2 37 -8 37 -18 0 -10 -12 -16 -37 -18
l-38 -3 0 -63 c0 -74 20 -102 64 -90 20 5 26 2 26 -10 0 -23 -48 -32 -79 -15
-36 21 -51 55 -51 122 0 44 -3 57 -15 57 -8 0 -15 9 -15 20 0 13 7 20 19 20
13 0 21 9 26 30 8 38 25 39 25 1z m-364 -65 c29 -29 34 -41 34 -79 0 -29 -7
-53 -20 -70 -25 -31 -81 -51 -121 -43 -28 5 -29 4 -29 -34 0 -33 -3 -40 -20
-40 -19 0 -20 7 -20 144 0 106 3 146 13 149 6 3 38 6 71 6 53 1 61 -2 92 -33z
m239 21 c24 -18 11 -41 -15 -27 -28 15 -76 12 -91 -6 -11 -14 -10 -18 6 -30
10 -8 33 -16 51 -20 38 -7 74 -37 74 -63 0 -26 -42 -61 -82 -67 -42 -7 -117
21 -101 37 7 7 23 7 51 -2 35 -10 45 -10 67 5 39 26 31 43 -27 61 -86 25 -107
58 -66 102 16 18 32 23 68 23 25 0 54 -6 65 -13z m422 -11 c25 -22 28 -31 31
-104 l4 -80 -38 -11 c-76 -21 -131 -9 -160 33 -36 57 13 106 106 106 53 0 61
8 33 35 -13 13 -28 16 -65 13 -52 -5 -70 4 -41 21 34 20 100 13 130 -13z
m-547 -108 c19 -9 44 -20 55 -24 17 -6 18 -8 3 -11 -10 -2 -33 3 -52 12 -19 9
-40 14 -45 10 -7 -3 -11 3 -11 15 0 12 3 20 8 18 4 -2 23 -11 42 -20z"/>
<path d="M940 321 l0 -79 30 -7 c38 -8 81 12 98 48 29 59 -14 117 -85 117
l-43 0 0 -79z m95 29 c23 -25 13 -67 -20 -82 -40 -18 -55 -5 -55 52 0 48 1 50
28 50 16 0 37 -9 47 -20z"/>
<path d="M1618 309 c-50 -29 4 -85 72 -74 40 7 41 8 38 43 -3 36 -4 37 -48 39
-25 2 -53 -2 -62 -8z m82 -35 c0 -11 -8 -14 -32 -12 -46 4 -49 28 -4 28 26 0
36 -4 36 -16z"/>
<path d="M190 352 l0 -104 33 -33 c40 -40 99 -52 172 -33 l50 13 3 131 3 131
-43 -2 -43 -2 -5 -94 c-5 -92 -6 -94 -31 -97 -38 -4 -48 15 -51 108 l-3 84
-43 0 -42 1 0 -103z m60 0 c0 -63 4 -82 18 -94 26 -23 51 -29 88 -22 l34 6 0
94 c0 78 3 94 15 94 13 0 15 -16 13 -107 l-3 -108 -46 -9 c-56 -11 -89 -3
-125 27 -23 20 -27 33 -31 94 -6 80 -1 103 22 103 12 0 15 -15 15 -78z"/>
<path d="M498 448 l-28 -10 0 -129 0 -129 45 0 45 0 0 95 c0 89 1 95 20 95 27
0 29 -9 32 -105 l3 -80 48 -3 47 -3 0 96 c0 94 1 96 23 93 21 -3 22 -8 25 -95
l3 -93 44 0 45 0 2 58 c4 139 -7 184 -51 206 -31 16 -261 19 -303 4z m162 -28
c8 0 35 3 59 6 83 12 111 -26 111 -147 0 -62 -2 -69 -20 -69 -18 0 -20 7 -20
79 0 59 -4 84 -16 95 -18 18 -79 21 -90 5 -4 -7 -6 -49 -5 -95 2 -79 1 -84
-18 -84 -20 0 -21 6 -21 84 0 96 -8 109 -67 104 l-38 -3 -3 -92 c-2 -74 -6
-93 -17 -93 -12 0 -15 19 -15 104 0 74 4 106 13 110 6 3 39 3 72 1 33 -2 67
-5 75 -5z"/>
</g>
</svg>
